<svg version="1.1" id="Layer_1" xmlns="http://www.w3.org/2000/svg" x="0" y="0" viewBox="0 0 187.75 195.32" style="enable-background:new 0 0 187.75 195.32" xml:space="preserve"><style>.st2{fill:#fff;stroke:#006838;stroke-width:2.5;stroke-miterlimit:10}.st4{fill:#046938}.st5{fill:#fff}</style><linearGradient id="SVGID_1_" gradientUnits="userSpaceOnUse" x1="93.623" y1="194.39" x2="93.623" y2="2.07" gradientTransform="matrix(1 0 0 -1 0 195.89)"><stop offset="0" style="stop-color:#55ba5c"/><stop offset=".202" style="stop-color:#50b058"/><stop offset=".46" style="stop-color:#409d51"/><stop offset=".748" style="stop-color:#248245"/><stop offset="1" style="stop-color:#015129"/></linearGradient><path d="M17.68 193.82c-9.06 0-16.43-7.37-16.43-16.42V17.93C1.25 8.87 8.62 1.5 17.68 1.5h151.89c9.06 0 16.43 7.37 16.43 16.43V177.4c0 9.05-7.37 16.42-16.43 16.42H17.68z" style="fill:url(#SVGID_1_)"/><path d="M169.57 3c8.23 0 14.93 6.7 14.93 14.93V177.4c0 8.23-6.7 14.92-14.93 14.92H17.68c-8.23 0-14.93-6.69-14.93-14.92V17.93C2.75 9.7 9.45 3 17.68 3h151.89m0-3H17.68C7.78 0-.25 8.03-.25 17.93V177.4c0 9.9 8.03 17.92 17.93 17.92h151.89c9.9 0 17.93-8.02 17.93-17.92V17.93c0-9.9-8.03-17.93-17.93-17.93z" style="fill:#006838"/><path class="st2" d="M149.77 145.24c-1.72 3.33-5.78 4.61-9.06 2.85-26.18-14.01-58.14-15.51-94.97-4.42-3.55 1.06-7.28-.99-8.33-4.6s.97-7.4 4.52-8.47c40.3-12.15 75.63-10.32 105.03 5.42 3.28 1.78 4.54 5.9 2.81 9.22zM160.98 111.74c-2.15 4.34-7.34 6.1-11.61 3.93-31.28-15.96-77.02-17.37-111.25-3.45-4.44 1.8-9.48-.39-11.25-4.9-1.77-4.51.39-9.62 4.82-11.43C70.79 80 121.2 81.64 157.13 99.96c4.26 2.17 5.99 7.45 3.85 11.78zM158.27 80.2c-37.12-19.06-96.1-16.96-129.46-4.09-5.35 2.07-11.35-.67-13.38-6.11-2.03-5.45.66-11.54 6.01-13.6 38.29-14.77 103.43-16.95 146.16 4.98 5.13 2.62 7.18 8.97 4.58 14.17-2.54 5.19-8.8 7.28-13.91 4.65z"/><g transform="matrix(2.81 0 0 2.81 1.407 1.407)"><linearGradient id="SVGID_00000178925591357352555340000005241745730518691203_" gradientUnits="userSpaceOnUse" x1="-39.984" y1="132.265" x2="381.799" y2="132.265" gradientTransform="matrix(2.7881 .3504 .3504 -2.7881 70.915 420.307)"><stop offset="0" style="stop-color:#56ba5c"/><stop offset=".106" style="stop-color:#57b760"/><stop offset=".241" style="stop-color:#54b16a"/><stop offset=".393" style="stop-color:#54aa7a"/><stop offset=".556" style="stop-color:#519d8a"/><stop offset=".729" style="stop-color:#508e9b"/><stop offset=".907" style="stop-color:#4d7bad"/><stop offset="1" style="stop-color:#4d70b6"/></linearGradient><path style="fill:url(#SVGID_00000178925591357352555340000005241745730518691203_)" d="M55.32 58.92c-.96 1.03-2.37 1.21-3.27.87-.48-.18-1.04-.59-1.06-1.57-.2-3.66-2.72-6.12-5.26-6.84.06-.47.09-.94.08-1.43-.07-2.62-1.11-5.36-2.92-7.7-3.72-5.02-14.81-14.95-25.54-24.57-1.53-1.37-3.05-2.74-4.54-4.08-1.22-1.15-2.55-1.06-3.33-.45s-1.21 1.87-.41 3.29c6.09 12.63 15.08 29.7 20.32 36.27 1.62 2.09 3.71 3.66 5.94 4.48-.37 5.43 3.53 9.97 9.33 10.7 6.25.79 11.49-2.77 12.18-8.25l.34-2.71-1.86 1.99zm-44.7-43.3c-.3-.54-.24-.95-.06-1.09.08-.06.18-.09.32-.07.2.02.46.15.74.42 1.5 1.35 3.03 2.72 4.56 4.09 10.66 9.55 21.69 19.44 25.29 24.31l.01.01c1.6 2.05 2.5 4.42 2.56 6.67.05 2.15-.68 3.94-2.07 5.01-1.38 1.08-3.29 1.35-5.37.77-2.17-.62-4.24-2.09-5.84-4.14-4.82-6.03-13.57-22.39-20.14-35.98zm34.25 50.51c-4.7-.59-7.92-4.16-7.82-8.47.19.03.37.07.55.09 2.06.26 3.96-.21 5.45-1.37 1.07-.83 1.84-1.97 2.29-3.29 1.7.56 3.71 2.3 3.87 5.17.02 1.45.84 2.64 2.19 3.16.99.38 2.1.36 3.13.02-1.55 3.65-5.83 5.17-9.66 4.69z"/><path class="st4" d="M46.36 68.48c-.58 0-1.17-.04-1.77-.11-5.92-.74-9.98-5.28-9.78-10.86-2.18-.88-4.23-2.47-5.82-4.51-5.3-6.63-14.29-23.72-20.37-36.35-.94-1.65-.37-3.19.55-3.9.95-.74 2.55-.87 3.98.48l1.09.98c1.13 1.02 2.28 2.05 3.44 3.09l.15.13C28.5 27 39.55 36.9 43.28 41.94c1.87 2.42 2.94 5.26 3.02 7.99.01.37-.01.73-.04 1.09 2.51.88 5 3.37 5.22 7.16.01.59.25.95.74 1.13.75.29 1.93.12 2.73-.74l2.91-3.15-.53 4.25c-.35 2.8-1.85 5.22-4.22 6.83-1.91 1.31-4.26 1.98-6.75 1.98zM10.8 13.2c-.39 0-.75.13-1.01.33-.62.48-.94 1.48-.28 2.65 6.08 12.6 15.03 29.62 20.27 36.2 1.56 2.01 3.59 3.54 5.72 4.32l.35.13-.03.37c-.35 5.2 3.39 9.47 8.89 10.17 2.9.36 5.69-.24 7.84-1.69 2.13-1.44 3.48-3.62 3.79-6.13l.15-1.16-.8.86c-1.1 1.19-2.76 1.4-3.82 1-.87-.33-1.37-1.05-1.38-2.03-.2-3.49-2.6-5.71-4.9-6.37l-.41-.12.05-.43c.06-.46.08-.91.08-1.36-.07-2.52-1.07-5.15-2.82-7.41-3.69-4.96-14.69-14.82-25.33-24.36l-.15-.13c-1.16-1.03-2.3-2.07-3.44-3.09l-1.1-.99c-.57-.54-1.16-.76-1.67-.76zm35.41 53.51c-.48 0-.95-.03-1.4-.09-4.89-.61-8.37-4.39-8.26-8.98l.01-.58.57.1c.19.03.36.06.53.09 1.94.24 3.7-.19 5.08-1.27.98-.76 1.69-1.79 2.12-3.06l.16-.47.47.15c1.98.65 4.05 2.64 4.22 5.62.02 1.27.72 2.27 1.87 2.72.85.32 1.85.33 2.79.01l1.05-.35-.42 1.03c-1.53 3.59-5.38 5.08-8.79 5.08zm-8.66-8.46c.2 3.8 3.21 6.86 7.38 7.39 3.03.38 6.84-.58 8.67-3.47-.82.1-1.63.01-2.37-.27-1.55-.6-2.49-1.95-2.52-3.62a5.278 5.278 0 0 0-3.08-4.53c-.5 1.23-1.28 2.27-2.27 3.04-1.6 1.22-3.6 1.73-5.81 1.46zm1.12-1.7c-.71 0-1.45-.11-2.21-.32-2.27-.64-4.44-2.18-6.1-4.32-4.83-6.06-13.62-22.48-20.19-36.06-.44-.8-.28-1.44.07-1.71.13-.1.36-.21.69-.17s.68.23 1.02.55l.44.4c1.36 1.22 2.74 2.45 4.11 3.69C27.18 28.18 38.22 38.07 41.86 43c1.66 2.12 2.6 4.59 2.66 6.97.06 2.33-.75 4.25-2.27 5.42-.98.76-2.22 1.16-3.58 1.16zM10.91 14.99c.01.09.05.22.14.39l.01.03C17.6 28.94 26.35 45.29 31.14 51.3c1.53 1.98 3.52 3.38 5.58 3.97 1.92.54 3.67.3 4.92-.68 1.26-.97 1.93-2.61 1.88-4.6-.06-2.16-.93-4.42-2.45-6.38-3.6-4.87-14.6-14.73-25.24-24.26l-4.11-3.69-.45-.4c-.15-.16-.28-.23-.36-.27z"/></g><path class="st5" d="M54.55 61.44c-1.57 3.65-5.85 5.17-9.68 4.69-4.7-.59-7.92-4.16-7.81-8.47.19.03.36.07.55.09 2.06.26 3.96-.21 5.45-1.37 1.07-.83 1.84-1.96 2.29-3.29 1.71.55 3.72 2.3 3.87 5.17.02 1.45.84 2.64 2.19 3.15.99.39 2.11.37 3.14.03z" transform="matrix(2.81 0 0 2.81 1.407 1.407)"/><path class="st4" d="M46.21 66.71c-.48 0-.95-.03-1.4-.09-4.9-.62-8.37-4.39-8.25-8.98l.01-.58.57.1c.19.03.35.06.53.09 1.94.24 3.7-.19 5.08-1.27.98-.76 1.69-1.79 2.12-3.06l.16-.47.47.15c1.99.64 4.06 2.62 4.22 5.62.02 1.27.72 2.27 1.87 2.71.84.34 1.83.35 2.8.02l1.06-.35-.44 1.02c-1.54 3.6-5.39 5.09-8.8 5.09zm-8.65-8.46c.19 3.8 3.2 6.86 7.37 7.39 3.02.38 6.84-.57 8.67-3.47-.83.1-1.65 0-2.37-.29-1.54-.58-2.49-1.93-2.51-3.61a5.217 5.217 0 0 0-3.08-4.53c-.5 1.23-1.27 2.26-2.27 3.04-1.6 1.23-3.61 1.74-5.81 1.47z" transform="matrix(2.81 0 0 2.81 1.407 1.407)"/><path class="st5" d="M41.97 54.99c-1.4 1.08-3.29 1.35-5.37.77-2.17-.62-4.24-2.09-5.84-4.14-4.82-6.05-13.58-22.41-20.15-35.98-.3-.54-.24-.95-.06-1.09.07-.06.18-.09.32-.07.2.02.46.15.74.42 1.5 1.36 3.03 2.72 4.56 4.09 10.66 9.55 21.69 19.44 25.3 24.3l.01.01c1.6 2.06 2.5 4.42 2.56 6.67.06 2.16-.68 3.94-2.07 5.02z" transform="matrix(2.81 0 0 2.81 1.407 1.407)"/><path class="st4" d="M38.68 56.56c-.71 0-1.45-.11-2.21-.32-2.27-.64-4.44-2.18-6.1-4.32-4.83-6.06-13.63-22.48-20.2-36.07-.43-.77-.28-1.4.06-1.69a.88.88 0 0 1 .7-.18c.33.04.68.23 1.02.55.82.74 1.66 1.5 2.5 2.25.68.61 1.37 1.22 2.05 1.84C27.18 28.19 38.21 38.08 41.86 43c1.66 2.13 2.6 4.61 2.66 6.97.06 2.31-.74 4.24-2.25 5.43-.99.76-2.23 1.16-3.59 1.16zM10.91 15c.01.09.05.22.15.39 6.56 13.57 15.32 29.91 20.1 35.92 1.53 1.98 3.52 3.38 5.58 3.97 1.92.54 3.67.3 4.92-.68 1.26-.99 1.93-2.63 1.87-4.61-.06-2.15-.93-4.41-2.45-6.38-3.6-4.86-14.6-14.72-25.24-24.25-.68-.61-1.36-1.23-2.05-1.84-.84-.75-1.68-1.51-2.51-2.26-.16-.15-.29-.22-.37-.26z" transform="matrix(2.81 0 0 2.81 1.407 1.407)"/></svg>