<?xml version="1.0" encoding="utf-8"?>
<!-- Generator: Adobe Illustrator 27.0.0, SVG Export Plug-In . SVG Version: 6.00 Build 0)  -->
<svg version="1.1" id="Layer_1" xmlns="http://www.w3.org/2000/svg" xmlns:xlink="http://www.w3.org/1999/xlink" x="0px" y="0px"
	 viewBox="0 0 187.75 195.32" style="enable-background:new 0 0 187.75 195.32;" xml:space="preserve">
<style type="text/css">
	.st0{fill:url(#SVGID_1_);}
	.st1{fill:#006838;}
	.st2{fill:#FFFFFF;stroke:#006838;stroke-width:2.5;stroke-miterlimit:10;}
	.st3{fill:url(#SVGID_00000127733703388054030730000010384298765895965096_);}
	.st4{fill:#046938;}
	.st5{fill:#FFFFFF;}
</style>
<g>
	
		<linearGradient id="SVGID_1_" gradientUnits="userSpaceOnUse" x1="93.6233" y1="194.3896" x2="93.6233" y2="2.0703" gradientTransform="matrix(1 0 0 -1 0 195.8898)">
		<stop  offset="0" style="stop-color:#55BA5C"/>
		<stop  offset="0.2021" style="stop-color:#50B058"/>
		<stop  offset="0.4603" style="stop-color:#409D51"/>
		<stop  offset="0.7477" style="stop-color:#248245"/>
		<stop  offset="1" style="stop-color:#015129"/>
	</linearGradient>
	<path class="st0" d="M17.68,193.82c-9.06,0-16.43-7.37-16.43-16.42V17.93C1.25,8.87,8.62,1.5,17.68,1.5h151.89
		c9.06,0,16.43,7.37,16.43,16.43V177.4c0,9.05-7.37,16.42-16.43,16.42H17.68z"/>
	<path class="st1" d="M169.57,3c8.23,0,14.93,6.7,14.93,14.93V177.4c0,8.23-6.7,14.92-14.93,14.92H17.68
		c-8.23,0-14.93-6.69-14.93-14.92V17.93C2.75,9.7,9.45,3,17.68,3H169.57 M169.57,0H17.68C7.78,0-0.25,8.03-0.25,17.93V177.4
		c0,9.9,8.03,17.92,17.93,17.92h151.89c9.9,0,17.93-8.02,17.93-17.92V17.93C187.5,8.03,179.47,0,169.57,0L169.57,0z"/>
</g>
<path class="st2" d="M149.77,145.24c-1.72,3.33-5.78,4.61-9.06,2.85c-26.18-14.01-58.14-15.51-94.97-4.42
	c-3.55,1.06-7.28-0.99-8.33-4.6s0.97-7.4,4.52-8.47c40.3-12.15,75.63-10.32,105.03,5.42C150.24,137.8,151.5,141.92,149.77,145.24z"
	/>
<path class="st2" d="M160.98,111.74c-2.15,4.34-7.34,6.1-11.61,3.93c-31.28-15.96-77.02-17.37-111.25-3.45
	c-4.44,1.8-9.48-0.39-11.25-4.9c-1.77-4.51,0.39-9.62,4.82-11.43C70.79,80,121.2,81.64,157.13,99.96
	C161.39,102.13,163.12,107.41,160.98,111.74L160.98,111.74z"/>
<path class="st2" d="M158.27,80.2c-37.12-19.06-96.1-16.96-129.46-4.09c-5.35,2.07-11.35-0.67-13.38-6.11
	c-2.03-5.45,0.66-11.54,6.01-13.6c38.29-14.77,103.43-16.95,146.16,4.98c5.13,2.62,7.18,8.97,4.58,14.17
	C169.64,80.74,163.38,82.83,158.27,80.2L158.27,80.2z"/>
<g transform="translate(1.4065934065934016 1.4065934065934016) scale(2.81 2.81)">
	<g>
		
			<linearGradient id="SVGID_00000178925591357352555340000005241745730518691203_" gradientUnits="userSpaceOnUse" x1="-39.9839" y1="132.2646" x2="381.7991" y2="132.2646" gradientTransform="matrix(2.7881 0.3504 0.3504 -2.7881 70.9149 420.3068)">
			<stop  offset="0" style="stop-color:#56BA5C"/>
			<stop  offset="0.106" style="stop-color:#57B760"/>
			<stop  offset="0.2415" style="stop-color:#54B16A"/>
			<stop  offset="0.3931" style="stop-color:#54AA7A"/>
			<stop  offset="0.5565" style="stop-color:#519D8A"/>
			<stop  offset="0.7292" style="stop-color:#508E9B"/>
			<stop  offset="0.9071" style="stop-color:#4D7BAD"/>
			<stop  offset="1" style="stop-color:#4D70B6"/>
		</linearGradient>
		<path style="fill:url(#SVGID_00000178925591357352555340000005241745730518691203_);" d="M55.32,58.92
			c-0.96,1.03-2.37,1.21-3.27,0.87c-0.48-0.18-1.04-0.59-1.06-1.57c-0.2-3.66-2.72-6.12-5.26-6.84c0.06-0.47,0.09-0.94,0.08-1.43
			c-0.07-2.62-1.11-5.36-2.92-7.7c-3.72-5.02-14.81-14.95-25.54-24.57c-1.53-1.37-3.05-2.74-4.54-4.08
			c-1.22-1.15-2.55-1.06-3.33-0.45s-1.21,1.87-0.41,3.29c6.09,12.63,15.08,29.7,20.32,36.27c1.62,2.09,3.71,3.66,5.94,4.48
			c-0.37,5.43,3.53,9.97,9.33,10.7c6.25,0.79,11.49-2.77,12.18-8.25l0.34-2.71L55.32,58.92z M10.62,15.62
			c-0.3-0.54-0.24-0.95-0.06-1.09c0.08-0.06,0.18-0.09,0.32-0.07c0.2,0.02,0.46,0.15,0.74,0.42c1.5,1.35,3.03,2.72,4.56,4.09
			c10.66,9.55,21.69,19.44,25.29,24.31l0.01,0.01c1.6,2.05,2.5,4.42,2.56,6.67c0.05,2.15-0.68,3.94-2.07,5.01
			c-1.38,1.08-3.29,1.35-5.37,0.77c-2.17-0.62-4.24-2.09-5.84-4.14C25.94,45.57,17.19,29.21,10.62,15.62z M44.87,66.13
			c-4.7-0.59-7.92-4.16-7.82-8.47c0.19,0.03,0.37,0.07,0.55,0.09c2.06,0.26,3.96-0.21,5.45-1.37c1.07-0.83,1.84-1.97,2.29-3.29
			c1.7,0.56,3.71,2.3,3.87,5.17c0.02,1.45,0.84,2.64,2.19,3.16c0.99,0.38,2.1,0.36,3.13,0.02C52.98,65.09,48.7,66.61,44.87,66.13z"
			/>
		<path class="st4" d="M46.36,68.48c-0.58,0-1.17-0.04-1.77-0.11c-5.92-0.74-9.98-5.28-9.78-10.86c-2.18-0.88-4.23-2.47-5.82-4.51
			c-5.3-6.63-14.29-23.72-20.37-36.35c-0.94-1.65-0.37-3.19,0.55-3.9c0.95-0.74,2.55-0.87,3.98,0.48l1.09,0.98
			c1.13,1.02,2.28,2.05,3.44,3.09l0.15,0.13C28.5,27,39.55,36.9,43.28,41.94c1.87,2.42,2.94,5.26,3.02,7.99
			c0.01,0.37-0.01,0.73-0.04,1.09c2.51,0.88,5,3.37,5.22,7.16c0.01,0.59,0.25,0.95,0.74,1.13c0.75,0.29,1.93,0.12,2.73-0.74
			l2.91-3.15l-0.53,4.25c-0.35,2.8-1.85,5.22-4.22,6.83C51.2,67.81,48.85,68.48,46.36,68.48z M10.8,13.2
			c-0.39,0-0.75,0.13-1.01,0.33c-0.62,0.48-0.94,1.48-0.28,2.65c6.08,12.6,15.03,29.62,20.27,36.2c1.56,2.01,3.59,3.54,5.72,4.32
			l0.35,0.13l-0.03,0.37c-0.35,5.2,3.39,9.47,8.89,10.17c2.9,0.36,5.69-0.24,7.84-1.69c2.13-1.44,3.48-3.62,3.79-6.13l0.15-1.16
			l-0.8,0.86c-1.1,1.19-2.76,1.4-3.82,1c-0.87-0.33-1.37-1.05-1.38-2.03c-0.2-3.49-2.6-5.71-4.9-6.37l-0.41-0.12l0.05-0.43
			c0.06-0.46,0.08-0.91,0.08-1.36c-0.07-2.52-1.07-5.15-2.82-7.41C38.8,37.57,27.8,27.71,17.16,18.17l-0.15-0.13
			c-1.16-1.03-2.3-2.07-3.44-3.09l-1.1-0.99C11.9,13.42,11.31,13.2,10.8,13.2z M46.21,66.71c-0.48,0-0.95-0.03-1.4-0.09l0,0
			c-4.89-0.61-8.37-4.39-8.26-8.98l0.01-0.58l0.57,0.1c0.19,0.03,0.36,0.06,0.53,0.09c1.94,0.24,3.7-0.19,5.08-1.27
			c0.98-0.76,1.69-1.79,2.12-3.06l0.16-0.47l0.47,0.15c1.98,0.65,4.05,2.64,4.22,5.62c0.02,1.27,0.72,2.27,1.87,2.72
			c0.85,0.32,1.85,0.33,2.79,0.01l1.05-0.35L55,61.63C53.47,65.22,49.62,66.71,46.21,66.71z M37.55,58.25
			c0.2,3.8,3.21,6.86,7.38,7.39l0,0c3.03,0.38,6.84-0.58,8.67-3.47c-0.82,0.1-1.63,0.01-2.37-0.27c-1.55-0.6-2.49-1.95-2.52-3.62
			c-0.13-2.27-1.58-3.86-3.08-4.53c-0.5,1.23-1.28,2.27-2.27,3.04C41.76,58.01,39.76,58.52,37.55,58.25z M38.67,56.55
			c-0.71,0-1.45-0.11-2.21-0.32c-2.27-0.64-4.44-2.18-6.1-4.32c-4.83-6.06-13.62-22.48-20.19-36.06c-0.44-0.8-0.28-1.44,0.07-1.71
			c0.13-0.1,0.36-0.21,0.69-0.17s0.68,0.23,1.02,0.55l0.44,0.4c1.36,1.22,2.74,2.45,4.11,3.69C27.18,28.18,38.22,38.07,41.86,43
			c1.66,2.12,2.6,4.59,2.66,6.97c0.06,2.33-0.75,4.25-2.27,5.42C41.27,56.15,40.03,56.55,38.67,56.55z M10.91,14.99
			c0.01,0.09,0.05,0.22,0.14,0.39l0.01,0.03C17.6,28.94,26.35,45.29,31.14,51.3c1.53,1.98,3.52,3.38,5.58,3.97
			c1.92,0.54,3.67,0.3,4.92-0.68c1.26-0.97,1.93-2.61,1.88-4.6c-0.06-2.16-0.93-4.42-2.45-6.38c-3.6-4.87-14.6-14.73-25.24-24.26
			c-1.37-1.23-2.75-2.47-4.11-3.69l-0.45-0.4C11.12,15.1,10.99,15.03,10.91,14.99z"/>
	</g>
	<g>
		<path class="st5" d="M54.55,61.44c-1.57,3.65-5.85,5.17-9.68,4.69c-4.7-0.59-7.92-4.16-7.81-8.47c0.19,0.03,0.36,0.07,0.55,0.09
			c2.06,0.26,3.96-0.21,5.45-1.37c1.07-0.83,1.84-1.96,2.29-3.29c1.71,0.55,3.72,2.3,3.87,5.17c0.02,1.45,0.84,2.64,2.19,3.15
			C52.4,61.8,53.52,61.78,54.55,61.44z"/>
		<path class="st4" d="M46.21,66.71c-0.48,0-0.95-0.03-1.4-0.09c-4.9-0.62-8.37-4.39-8.25-8.98l0.01-0.58l0.57,0.1
			c0.19,0.03,0.35,0.06,0.53,0.09c1.94,0.24,3.7-0.19,5.08-1.27c0.98-0.76,1.69-1.79,2.12-3.06l0.16-0.47l0.47,0.15
			c1.99,0.64,4.06,2.62,4.22,5.62c0.02,1.27,0.72,2.27,1.87,2.71c0.84,0.34,1.83,0.35,2.8,0.02l1.06-0.35l-0.44,1.02
			C53.47,65.22,49.62,66.71,46.21,66.71z M37.56,58.25c0.19,3.8,3.2,6.86,7.37,7.39c3.02,0.38,6.84-0.57,8.67-3.47
			c-0.83,0.1-1.65,0-2.37-0.29c-1.54-0.58-2.49-1.93-2.51-3.61c-0.12-2.28-1.57-3.87-3.08-4.53c-0.5,1.23-1.27,2.26-2.27,3.04
			C41.77,58.01,39.76,58.52,37.56,58.25z"/>
	</g>
	<g>
		<path class="st5" d="M41.97,54.99c-1.4,1.08-3.29,1.35-5.37,0.77c-2.17-0.62-4.24-2.09-5.84-4.14
			c-4.82-6.05-13.58-22.41-20.15-35.98c-0.3-0.54-0.24-0.95-0.06-1.09c0.07-0.06,0.18-0.09,0.32-0.07c0.2,0.02,0.46,0.15,0.74,0.42
			c1.5,1.36,3.03,2.72,4.56,4.09c10.66,9.55,21.69,19.44,25.3,24.3l0.01,0.01c1.6,2.06,2.5,4.42,2.56,6.67
			C44.1,52.13,43.36,53.91,41.97,54.99z"/>
		<path class="st4" d="M38.68,56.56c-0.71,0-1.45-0.11-2.21-0.32c-2.27-0.64-4.44-2.18-6.1-4.32c-4.83-6.06-13.63-22.48-20.2-36.07
			c-0.43-0.77-0.28-1.4,0.06-1.69c0.18-0.15,0.43-0.22,0.7-0.18c0.33,0.04,0.68,0.23,1.02,0.55c0.82,0.74,1.66,1.5,2.5,2.25
			c0.68,0.61,1.37,1.22,2.05,1.84C27.18,28.19,38.21,38.08,41.86,43c1.66,2.13,2.6,4.61,2.66,6.97c0.06,2.31-0.74,4.24-2.25,5.43
			l0,0C41.28,56.16,40.04,56.56,38.68,56.56z M10.91,15c0.01,0.09,0.05,0.22,0.15,0.39c6.56,13.57,15.32,29.91,20.1,35.92
			c1.53,1.98,3.52,3.38,5.58,3.97c1.92,0.54,3.67,0.3,4.92-0.68c1.26-0.99,1.93-2.63,1.87-4.61c-0.06-2.15-0.93-4.41-2.45-6.38
			c-3.6-4.86-14.6-14.72-25.24-24.25c-0.68-0.61-1.36-1.23-2.05-1.84c-0.84-0.75-1.68-1.51-2.51-2.26
			C11.12,15.11,10.99,15.04,10.91,15z"/>
	</g>
</g>
</svg>
