<?xml version="1.0" encoding="utf-8"?>
<!-- Generator: Adobe Illustrator 27.0.0, SVG Export Plug-In . SVG Version: 6.00 Build 0)  -->
<svg version="1.1" id="Layer_1" xmlns="http://www.w3.org/2000/svg" xmlns:xlink="http://www.w3.org/1999/xlink" x="0px" y="0px"
	 viewBox="0 0 187.75 195.32" style="enable-background:new 0 0 187.75 195.32;" xml:space="preserve">
<style type="text/css">
	.st0{fill:url(#SVGID_1_);stroke:#006838;stroke-width:2;stroke-miterlimit:10;}
	.st1{opacity:0.1;}
	.st2{fill:#3D523F;}
	.st3{fill:url(#SVGID_00000038383057120969729760000001263405504045308828_);stroke:#006838;stroke-miterlimit:10;}
	.st4{fill:#FFFFFF;stroke:#006838;stroke-miterlimit:10;}
</style>
<linearGradient id="SVGID_1_" gradientUnits="userSpaceOnUse" x1="97.9485" y1="4.3298" x2="97.9485" y2="171.8128">
	<stop  offset="0" style="stop-color:#55BA5C"/>
	<stop  offset="0.2021" style="stop-color:#50B058"/>
	<stop  offset="0.4603" style="stop-color:#409D51"/>
	<stop  offset="0.7477" style="stop-color:#248245"/>
	<stop  offset="1" style="stop-color:#006838"/>
</linearGradient>
<path class="st0" d="M97.95,4.33c-46.25,0-83.74,37.49-83.74,83.74c0,46.25,37.49,83.74,83.74,83.74
	c46.25,0,83.74-37.49,83.74-83.74C181.69,41.83,144.2,4.33,97.95,4.33C97.95,4.33,97.95,4.33,97.95,4.33z M136.35,125.11
	c-1.5,2.46-4.72,3.24-7.18,1.73c-19.66-12.01-44.41-14.73-73.56-8.07c-2.81,0.64-5.61-1.12-6.25-3.93
	c-0.64-2.81,1.11-5.61,3.93-6.25c31.9-7.29,59.26-4.15,81.34,9.34C137.08,119.44,137.86,122.65,136.35,125.11z M146.6,102.31
	c-1.89,3.07-5.91,4.04-8.98,2.15C115.11,90.62,80.8,86.61,54.17,94.7c-3.45,1.04-7.1-0.9-8.15-4.35c-1.04-3.45,0.91-7.09,4.35-8.14
	c30.41-9.23,68.22-4.76,94.07,11.13C147.52,95.22,148.49,99.24,146.6,102.31L146.6,102.31z M147.48,78.56
	c-26.99-16.03-71.52-17.5-97.29-9.68c-4.14,1.25-8.51-1.08-9.77-5.22c-1.25-4.14,1.08-8.51,5.22-9.77
	c29.58-8.98,78.76-7.24,109.83,11.2c3.73,2.21,4.95,7.02,2.74,10.73C156.02,79.54,151.2,80.77,147.48,78.56L147.48,78.56z"/>
<g transform="translate(1.4065934065934016 1.4065934065934016) scale(2.81 2.81)" class="st1">
	<path class="st2" d="M53.7,56.01v2.73c0,5.54-4.75,9.71-11.06,9.71c-5.84,0-10.28-4.02-10.59-9.45c-2.31-0.54-4.58-1.83-6.45-3.7
		C19.59,49.43,8.54,33.61,0.91,21.85c-0.96-1.3-0.7-2.62,0-3.32c0.7-0.7,2.02-0.97,3.37,0.03c1.64,1.14,3.32,2.3,5.01,3.47
		c11.84,8.19,24.07,16.67,28.4,21.19c2.1,2.1,3.47,4.68,3.86,7.27c0.07,0.49,0.1,0.96,0.1,1.43c2.61,0.41,5.41,2.52,6.07,6.13
		c0.14,0.96,0.75,1.31,1.25,1.43c0.94,0.23,2.32-0.12,3.14-1.26L53.7,56.01z"/>
</g>
<g transform="translate(1.4065934065934016 1.4065934065934016) scale(2.81 2.81)">
	
		<linearGradient id="SVGID_00000093176081510948985680000013000894198057915277_" gradientUnits="userSpaceOnUse" x1="1.1261" y1="42.4793" x2="151.2268" y2="42.4793">
		<stop  offset="0" style="stop-color:#55BA5C"/>
		<stop  offset="0.106" style="stop-color:#56B760"/>
		<stop  offset="0.2415" style="stop-color:#55B16A"/>
		<stop  offset="0.3931" style="stop-color:#53A979"/>
		<stop  offset="0.5565" style="stop-color:#519D8A"/>
		<stop  offset="0.7292" style="stop-color:#4F8D9B"/>
		<stop  offset="0.9071" style="stop-color:#4D7AAC"/>
		<stop  offset="1" style="stop-color:#4C6FB5"/>
	</linearGradient>
	<path style="fill:url(#SVGID_00000093176081510948985680000013000894198057915277_);stroke:#006838;stroke-miterlimit:10;" d="
		M52.95,57.53c-0.82,1.14-2.2,1.5-3.14,1.27c-0.5-0.12-1.11-0.46-1.25-1.43c-0.66-3.61-3.46-5.73-6.07-6.13
		c0-0.47-0.03-0.94-0.1-1.43c-0.4-2.59-1.77-5.18-3.86-7.28c-4.32-4.52-16.56-12.99-28.4-21.19C8.44,20.17,6.76,19,5.12,17.86
		c-1.35-0.99-2.66-0.73-3.36-0.03c-0.7,0.7-0.97,2.01,0,3.32C9.38,32.92,20.43,48.74,26.44,54.6c1.87,1.87,4.14,3.17,6.45,3.7
		c0.31,5.43,4.75,9.45,10.59,9.45c6.3,0,11.06-4.18,11.06-9.71v-2.73L52.95,57.53z M3.2,20.15c-0.37-0.5-0.36-0.91-0.2-1.07
		c0.07-0.07,0.17-0.11,0.31-0.11c0.2,0,0.47,0.09,0.79,0.32c1.66,1.15,3.35,2.32,5.03,3.49c11.77,8.15,23.94,16.58,28.13,20.97
		l0.01,0.01c1.84,1.83,3.03,4.07,3.37,6.3c0.32,2.13-0.18,3.99-1.43,5.23c-1.24,1.24-3.1,1.75-5.23,1.43
		c-2.23-0.34-4.47-1.54-6.31-3.38C22.14,47.95,11.41,32.81,3.2,20.15z M43.48,65.99c-4.74,0-8.38-3.14-8.82-7.43
		c0.19,0.01,0.38,0.02,0.56,0.02c2.08,0,3.9-0.7,5.24-2.04c0.96-0.96,1.58-2.18,1.86-3.55c1.76,0.34,3.97,1.82,4.49,4.65
		c0.2,1.44,1.16,2.51,2.57,2.86c1.03,0.25,2.13,0.1,3.11-0.37C51.4,63.95,47.34,65.99,43.48,65.99z"/>
	<path class="st4" d="M52.5,60.13c-1.1,3.82-5.16,5.86-9.02,5.86c-4.74,0-8.38-3.14-8.81-7.43c0.19,0.01,0.37,0.02,0.56,0.02
		c2.08,0,3.9-0.7,5.24-2.04c0.96-0.96,1.58-2.17,1.86-3.55c1.76,0.33,3.98,1.82,4.49,4.65c0.2,1.44,1.16,2.51,2.57,2.85
		C50.41,60.76,51.52,60.6,52.5,60.13z"/>
	<path class="st4" d="M39.22,55.3c-1.25,1.25-3.1,1.75-5.23,1.43c-2.23-0.34-4.47-1.54-6.31-3.38c-5.54-5.4-16.27-20.54-24.48-33.19
		c-0.37-0.5-0.36-0.91-0.2-1.07c0.06-0.07,0.17-0.11,0.31-0.11c0.2,0,0.47,0.09,0.79,0.32c1.66,1.16,3.35,2.32,5.03,3.49
		c11.77,8.15,23.94,16.58,28.13,20.96l0.01,0.01c1.84,1.84,3.03,4.07,3.37,6.3C40.97,52.2,40.46,54.05,39.22,55.3z"/>
</g>
</svg>
