<svg version="1.1" id="Layer_1" xmlns="http://www.w3.org/2000/svg" x="0" y="0" viewBox="0 0 187.75 195.32" style="enable-background:new 0 0 187.75 195.32" xml:space="preserve"><style>.st4{fill:#fff;stroke:#006838;stroke-miterlimit:10}</style><linearGradient id="SVGID_1_" gradientUnits="userSpaceOnUse" x1="97.948" y1="4.33" x2="97.948" y2="171.813"><stop offset="0" style="stop-color:#55ba5c"/><stop offset=".202" style="stop-color:#50b058"/><stop offset=".46" style="stop-color:#409d51"/><stop offset=".748" style="stop-color:#248245"/><stop offset="1" style="stop-color:#006838"/></linearGradient><path d="M97.95 4.33c-46.25 0-83.74 37.49-83.74 83.74 0 46.25 37.49 83.74 83.74 83.74 46.25 0 83.74-37.49 83.74-83.74 0-46.24-37.49-83.74-83.74-83.74zm38.4 120.78a5.217 5.217 0 0 1-7.18 1.73c-19.66-12.01-44.41-14.73-73.56-8.07a5.222 5.222 0 0 1-6.25-3.93 5.214 5.214 0 0 1 3.93-6.25c31.9-7.29 59.26-4.15 81.34 9.34 2.45 1.51 3.23 4.72 1.72 7.18zm10.25-22.8c-1.89 3.07-5.91 4.04-8.98 2.15-22.51-13.84-56.82-17.85-83.45-9.76-3.45 1.04-7.1-.9-8.15-4.35a6.54 6.54 0 0 1 4.35-8.14c30.41-9.23 68.22-4.76 94.07 11.13 3.08 1.88 4.05 5.9 2.16 8.97zm.88-23.75c-26.99-16.03-71.52-17.5-97.29-9.68a7.839 7.839 0 0 1-9.77-5.22 7.839 7.839 0 0 1 5.22-9.77c29.58-8.98 78.76-7.24 109.83 11.2 3.73 2.21 4.95 7.02 2.74 10.73-2.19 3.72-7.01 4.95-10.73 2.74z" style="fill:url(#SVGID_1_);stroke:#006838;stroke-width:2;stroke-miterlimit:10"/><g style="opacity:.1"><path d="M53.7 56.01v2.73c0 5.54-4.75 9.71-11.06 9.71-5.84 0-10.28-4.02-10.59-9.45-2.31-.54-4.58-1.83-6.45-3.7C19.59 49.43 8.54 33.61.91 21.85c-.96-1.3-.7-2.62 0-3.32.7-.7 2.02-.97 3.37.03 1.64 1.14 3.32 2.3 5.01 3.47 11.84 8.19 24.07 16.67 28.4 21.19 2.1 2.1 3.47 4.68 3.86 7.27.07.49.1.96.1 1.43 2.61.41 5.41 2.52 6.07 6.13.14.96.75 1.31 1.25 1.43.94.23 2.32-.12 3.14-1.26l1.59-2.21z" style="fill:#3d523f" transform="matrix(2.81 0 0 2.81 1.407 1.407)"/></g><g transform="matrix(2.81 0 0 2.81 1.407 1.407)"><linearGradient id="SVGID_00000093176081510948985680000013000894198057915277_" gradientUnits="userSpaceOnUse" x1="1.126" y1="42.479" x2="151.227" y2="42.479"><stop offset="0" style="stop-color:#55ba5c"/><stop offset=".106" style="stop-color:#56b760"/><stop offset=".241" style="stop-color:#55b16a"/><stop offset=".393" style="stop-color:#53a979"/><stop offset=".556" style="stop-color:#519d8a"/><stop offset=".729" style="stop-color:#4f8d9b"/><stop offset=".907" style="stop-color:#4d7aac"/><stop offset="1" style="stop-color:#4c6fb5"/></linearGradient><path style="fill:url(#SVGID_00000093176081510948985680000013000894198057915277_);stroke:#006838;stroke-miterlimit:10" d="M52.95 57.53c-.82 1.14-2.2 1.5-3.14 1.27-.5-.12-1.11-.46-1.25-1.43-.66-3.61-3.46-5.73-6.07-6.13 0-.47-.03-.94-.1-1.43-.4-2.59-1.77-5.18-3.86-7.28-4.32-4.52-16.56-12.99-28.4-21.19-1.69-1.17-3.37-2.34-5.01-3.48-1.35-.99-2.66-.73-3.36-.03-.7.7-.97 2.01 0 3.32C9.38 32.92 20.43 48.74 26.44 54.6c1.87 1.87 4.14 3.17 6.45 3.7.31 5.43 4.75 9.45 10.59 9.45 6.3 0 11.06-4.18 11.06-9.71v-2.73l-1.59 2.22zM3.2 20.15c-.37-.5-.36-.91-.2-1.07.07-.07.17-.11.31-.11.2 0 .47.09.79.32 1.66 1.15 3.35 2.32 5.03 3.49 11.77 8.15 23.94 16.58 28.13 20.97l.01.01c1.84 1.83 3.03 4.07 3.37 6.3.32 2.13-.18 3.99-1.43 5.23-1.24 1.24-3.1 1.75-5.23 1.43-2.23-.34-4.47-1.54-6.31-3.38-5.53-5.39-16.26-20.53-24.47-33.19zm40.28 45.84c-4.74 0-8.38-3.14-8.82-7.43.19.01.38.02.56.02 2.08 0 3.9-.7 5.24-2.04.96-.96 1.58-2.18 1.86-3.55 1.76.34 3.97 1.82 4.49 4.65.2 1.44 1.16 2.51 2.57 2.86 1.03.25 2.13.1 3.11-.37-1.09 3.82-5.15 5.86-9.01 5.86z"/><path class="st4" d="M52.5 60.13c-1.1 3.82-5.16 5.86-9.02 5.86-4.74 0-8.38-3.14-8.81-7.43.19.01.37.02.56.02 2.08 0 3.9-.7 5.24-2.04.96-.96 1.58-2.17 1.86-3.55 1.76.33 3.98 1.82 4.49 4.65.2 1.44 1.16 2.51 2.57 2.85 1.02.27 2.13.11 3.11-.36z"/><path class="st4" d="M39.22 55.3c-1.25 1.25-3.1 1.75-5.23 1.43-2.23-.34-4.47-1.54-6.31-3.38-5.54-5.4-16.27-20.54-24.48-33.19-.37-.5-.36-.91-.2-1.07.06-.07.17-.11.31-.11.2 0 .47.09.79.32 1.66 1.16 3.35 2.32 5.03 3.49 11.77 8.15 23.94 16.58 28.13 20.96l.01.01c1.84 1.84 3.03 4.07 3.37 6.3.33 2.14-.18 3.99-1.42 5.24z"/></g></svg>