<svg version="1.1" id="Layer_1" xmlns="http://www.w3.org/2000/svg" x="0" y="0" viewBox="0 0 187.8 195.3" style="enable-background:new 0 0 187.8 195.3" xml:space="preserve"><style>.st2{fill:#fff;stroke:#006838;stroke-width:2.5;stroke-miterlimit:10}.st4{fill:#046938}.st5{fill:#fff}</style><linearGradient id="SVGID_1_" gradientUnits="userSpaceOnUse" x1="94.623" y1="4.713" x2="94.623" y2="190.608"><stop offset="0" style="stop-color:#55ba5c"/><stop offset=".202" style="stop-color:#50b058"/><stop offset=".46" style="stop-color:#409d51"/><stop offset=".748" style="stop-color:#248245"/><stop offset="1" style="stop-color:#015129"/></linearGradient><path d="M40.9 190.6c-20.2 0-36.6-16.4-36.6-36.6V41.3c0-20.2 16.4-36.6 36.6-36.6h107.4c20.2 0 36.6 16.4 36.6 36.6V154c0 20.2-16.4 36.6-36.6 36.6H40.9z" style="fill:url(#SVGID_1_)"/><path d="M148.3 6.2c19.4 0 35.1 15.8 35.1 35.1V154c0 19.4-15.8 35.1-35.1 35.1H40.9c-19.4 0-35.1-15.8-35.1-35.1V41.3C5.8 22 21.6 6.2 40.9 6.2h107.4m0-3H40.9c-21 0-38.1 17.1-38.1 38.1V154c0 21.1 17.1 38.1 38.1 38.1h107.4c21.1 0 38.1-17.1 38.1-38.1V41.3c0-21-17-38.1-38.1-38.1z" style="fill:#0c8c44"/><path class="st2" d="M149.8 145.2c-1.7 3.3-5.8 4.6-9.1 2.9-26.2-14-58.1-15.5-95-4.4-3.5 1.1-7.3-1-8.3-4.6s1-7.4 4.5-8.5c40.3-12.2 75.6-10.3 105 5.4 3.3 1.8 4.6 5.9 2.9 9.2zM161 111.7c-2.1 4.3-7.3 6.1-11.6 3.9-31.3-16-77-17.4-111.2-3.4-4.4 1.8-9.5-.4-11.2-4.9s.4-9.6 4.8-11.4c39-15.9 89.4-14.3 125.3 4.1 4.3 2.1 6 7.4 3.9 11.7zM158.3 80.2c-37.1-19.1-96.1-17-129.5-4.1-5.4 2.1-11.4-.7-13.4-6.1-2-5.4.7-11.5 6-13.6 38.3-14.8 103.4-17 146.2 5 5.1 2.6 7.2 9 4.6 14.2-2.6 5.1-8.8 7.2-13.9 4.6z"/><g transform="matrix(2.81 0 0 2.81 1.407 1.407)"><linearGradient id="SVGID_00000152258110360639853810000004593731979478759561_" gradientUnits="userSpaceOnUse" x1="-114.668" y1="100.277" x2="295.415" y2="100.277" gradientTransform="scale(7.8962) rotate(7.163 705.383 977.335)"><stop offset="0" style="stop-color:#56ba5c"/><stop offset=".106" style="stop-color:#57b760"/><stop offset=".241" style="stop-color:#54b16a"/><stop offset=".393" style="stop-color:#54aa7a"/><stop offset=".556" style="stop-color:#519d8a"/><stop offset=".729" style="stop-color:#508e9b"/><stop offset=".907" style="stop-color:#4d7bad"/><stop offset="1" style="stop-color:#4d70b6"/></linearGradient><path style="fill:url(#SVGID_00000152258110360639853810000004593731979478759561_)" d="M56.8 59.2c-.9 1-2.3 1.2-3.2.8-.5-.2-1-.6-1-1.5-.2-3.6-2.6-5.9-5.1-6.6.1-.5.1-.9.1-1.4-.1-2.5-1.1-5.2-2.8-7.5-3.6-4.9-14.4-14.5-24.8-23.9-1.5-1.3-3-2.7-4.4-4-1.2-1.1-2.5-1-3.2-.4-.8.6-1.2 1.8-.4 3.2 5.9 12.3 14.7 28.8 19.8 35.2 1.6 2 3.6 3.6 5.8 4.3-.4 5.3 3.4 9.7 9.1 10.4 6.1.8 11.2-2.7 11.8-8l.3-2.6-2 2zm-43.5-42c-.3-.5-.2-.9-.1-1.1.1-.1.2-.1.3-.1.2 0 .4.1.7.4 1.5 1.3 2.9 2.6 4.4 4C29.1 29.7 39.8 39.3 43.3 44c1.6 2 2.4 4.3 2.5 6.5 0 2.1-.7 3.8-2 4.9-1.3 1-3.2 1.3-5.2.7-2.1-.6-4.1-2-5.7-4-4.7-5.9-13.2-21.7-19.6-34.9zm33.4 49c-4.6-.6-7.7-4-7.6-8.2.2 0 .4.1.5.1 2 .3 3.9-.2 5.3-1.3 1-.8 1.8-1.9 2.2-3.2 1.7.5 3.6 2.2 3.8 5 0 1.4.8 2.6 2.1 3.1 1 .4 2 .3 3 0-1.5 3.5-5.6 5-9.3 4.5z"/><path class="st4" d="M48.1 68.5c-.6 0-1.1 0-1.7-.1-5.8-.7-9.7-5.1-9.5-10.5-2.1-.9-4.1-2.4-5.7-4.4-5.2-6.4-13.9-23-19.8-35.3-.9-1.6-.4-3.1.5-3.8.9-.7 2.5-.8 3.9.5l1.1 1 3.3 3 .1.1C30.7 28.3 41.4 37.9 45 42.8c1.8 2.3 2.9 5.1 2.9 7.8v1.1c2.4.9 4.9 3.3 5.1 7 0 .6.2.9.7 1.1.7.3 1.9.1 2.7-.7l2.8-3.1-.5 4.1c-.3 2.7-1.8 5.1-4.1 6.6-1.8 1.1-4.1 1.8-6.5 1.8zM13.5 14.8c-.4 0-.7.1-1 .3-.6.5-.9 1.4-.3 2.6 6 12.2 14.7 28.8 19.8 35.1 1.5 2 3.5 3.4 5.6 4.2l.3.1v.4c-.3 5 3.3 9.2 8.6 9.9 2.8.3 5.5-.2 7.6-1.6 2.1-1.4 3.4-3.5 3.7-6l.1-1.1-.8.8c-1.1 1.2-2.7 1.4-3.7 1-.8-.3-1.3-1-1.3-2-.2-3.4-2.5-5.5-4.8-6.2l-.3-.1v-.4c.1-.4.1-.9.1-1.3-.1-2.4-1-5-2.7-7.2-3.6-4.8-14.3-14.4-24.6-23.6l-.1-.1-3.3-3-1.1-1c-.7-.6-1.3-.8-1.8-.8zm34.5 52c-.5 0-.9 0-1.4-.1-4.8-.6-8.1-4.3-8-8.7v-.6l.6.1c.2 0 .4.1.5.1 1.9.2 3.6-.2 4.9-1.2 1-.7 1.6-1.7 2.1-3l.2-.5.5.1c1.9.6 3.9 2.6 4.1 5.5 0 1.2.7 2.2 1.8 2.6.8.3 1.8.3 2.7 0l1-.3-.4 1c-1.6 3.5-5.3 5-8.6 5zm-8.5-8.3c.2 3.7 3.1 6.7 7.2 7.2 2.9.4 6.7-.6 8.4-3.4-.8.1-1.6 0-2.3-.3-1.5-.6-2.4-1.9-2.5-3.5-.1-2.2-1.5-3.7-3-4.4-.5 1.2-1.2 2.2-2.2 3-1.5 1.2-3.4 1.7-5.6 1.4zm1.1-1.6c-.7 0-1.4-.1-2.1-.3-2.2-.6-4.3-2.1-5.9-4.2-4.7-5.9-13.2-21.8-19.6-35-.4-.8-.3-1.4.1-1.7.1-.1.4-.2.7-.2.3 0 .7.2 1 .5l.4.4c1.3 1.2 2.7 2.4 4 3.6 10.2 9.4 21 19 24.5 23.7 1.6 2.1 2.5 4.5 2.6 6.8.1 2.3-.7 4.1-2.2 5.3-.9.7-2.2 1.1-3.5 1.1zm-27-40.4c0 .1 0 .2.1.4 6.4 13.1 14.9 29 19.5 34.8 1.5 1.9 3.4 3.3 5.4 3.9 1.9.5 3.6.3 4.8-.7 1.2-.9 1.9-2.5 1.8-4.5-.1-2.1-.9-4.3-2.4-6.2-3.3-4.6-14-14.2-24.4-23.4-1.3-1.2-2.7-2.4-4-3.6l-.4-.4c-.2-.1-.3-.2-.4-.3z"/></g><path class="st5" d="M56.1 61.6c-1.5 3.5-5.7 5-9.4 4.6-4.6-.6-7.7-4-7.6-8.2.2 0 .4.1.5.1 2 .3 3.9-.2 5.3-1.3 1-.8 1.8-1.9 2.2-3.2 1.7.5 3.6 2.2 3.8 5 0 1.4.8 2.6 2.1 3.1 1 .3 2.1.3 3.1-.1z" transform="matrix(2.81 0 0 2.81 1.407 1.407)"/><path class="st4" d="M48 66.8c-.5 0-.9 0-1.4-.1-4.8-.6-8.1-4.3-8-8.7v-.6l.6.1c.2 0 .3.1.5.1 1.9.2 3.6-.2 4.9-1.2 1-.7 1.6-1.7 2.1-3l.2-.5.5.1c1.9.6 3.9 2.5 4.1 5.5 0 1.2.7 2.2 1.8 2.6.8.3 1.8.3 2.7 0l1-.3-.4 1c-1.6 3.5-5.3 5-8.6 5zm-8.5-8.3c.2 3.7 3.1 6.7 7.2 7.2 2.9.4 6.7-.6 8.4-3.4-.8.1-1.6 0-2.3-.3-1.5-.6-2.4-1.9-2.4-3.5-.1-2.2-1.5-3.8-3-4.4-.5 1.2-1.2 2.2-2.2 3-1.6 1.2-3.5 1.7-5.7 1.4z" transform="matrix(2.81 0 0 2.81 1.407 1.407)"/><path class="st5" d="M43.8 55.4c-1.4 1-3.2 1.3-5.2.7-2.1-.6-4.1-2-5.7-4-4.7-5.9-13.2-21.8-19.6-34.9-.3-.5-.2-.9-.1-1.1.1-.1.2-.1.3-.1.2 0 .4.1.7.4 1.5 1.3 2.9 2.6 4.4 4C29.1 29.7 39.8 39.3 43.3 44c1.6 2 2.4 4.3 2.5 6.5.1 2.1-.6 3.8-2 4.9z" transform="matrix(2.81 0 0 2.81 1.407 1.407)"/><path class="st4" d="M40.6 56.9c-.7 0-1.4-.1-2.1-.3-2.2-.6-4.3-2.1-5.9-4.2-4.7-5.9-13.3-21.8-19.6-35-.4-.7-.3-1.4.1-1.6.2-.1.4-.2.7-.2.3 0 .7.2 1 .5.8.7 1.6 1.5 2.4 2.2.7.6 1.3 1.2 2 1.8 10.2 9.3 21 18.9 24.5 23.6 1.6 2.1 2.5 4.5 2.6 6.8.1 2.2-.7 4.1-2.2 5.3-.9.7-2.1 1.1-3.5 1.1zm-27-40.3c0 .1 0 .2.1.4 6.4 13.2 14.9 29 19.5 34.9 1.5 1.9 3.4 3.3 5.4 3.9 1.9.5 3.6.3 4.8-.7 1.2-1 1.9-2.6 1.8-4.5-.1-2.1-.9-4.3-2.4-6.2-3.3-4.8-14-14.4-24.4-23.6-.7-.6-1.3-1.2-2-1.8-.8-.7-1.6-1.5-2.4-2.2-.2-.1-.3-.2-.4-.2z" transform="matrix(2.81 0 0 2.81 1.407 1.407)"/></svg>